PathFileType	4	(X/Y/Z)	52_2_52_p1_0-354.trc
DataRate	CameraRate	NumFrames	NumMarkers	Units	OrigDataRate	OrigDataStartFrame	OrigNumFrames
59.0	59.0	7	27	m	59.0	266	355
Frame#	Time	RHip			RKnee			RAnkle			RBigToe			RSmallToe			RHeel			LHip			LKnee			LAnkle			LBigToe			LSmallToe			LHeel			Neck			Head			Nose			RShoulder			RElbow			RWrist			RThumb			RIndex			RPinky			LShoulder			LElbow			LWrist			LThumb			LIndex			LPinky			
		X1	Y1	Z1	X2	Y2	Z2	X3	Y3	Z3	X4	Y4	Z4	X5	Y5	Z5	X6	Y6	Z6	X7	Y7	Z7	X8	Y8	Z8	X9	Y9	Z9	X10	Y10	Z10	X11	Y11	Z11	X12	Y12	Z12	X13	Y13	Z13	X14	Y14	Z14	X15	Y15	Z15	X16	Y16	Z16	X17	Y17	Z17	X18	Y18	Z18	X19	Y19	Z19	X20	Y20	Z20	X21	Y21	Z21	X22	Y22	Z22	X23	Y23	Z23	X24	Y24	Z24	X25	Y25	Z25	X26	Y26	Z26	X27	Y27	Z27	
266	4.508474576271187	0.24074540081895096	0.5708167781150342	0.5028385701684368	0.15481577931784404	0.6885854148596995	0.9269370391533306	0.06140867831553167	0.7839798789715876	1.2783537021281506	0.007095063248505649	0.6168253400011501	1.3148395425524302	0.08068412862840267	0.6038507969182084	1.3217430462397495	0.01266381652186607	0.8839823322956615	1.328717938658555	0.03539483496862335	0.5730956708948453	0.4749540873120855	-0.06000993170238415	0.6953444514886825	0.8648284626230988	-0.1340160358177568	0.7686922775127595	1.2164370384103338	-0.1496262826750052	0.6229513218986668	1.2635674550252172	-0.19687780215385575	0.6537046027249855	1.2577428572571006	-0.1377362884090096	0.8466740422008988	1.2835908708988515	0.2610453290735408	0.42353113027839884	-0.016475271913007	0.3178535221604199	0.3507339163177151	-0.25221795698555727	0.29182319352130737	0.32299776526871565	-0.11947401584983548	0.3763071048500245	0.4398992237532781	0.10840503340101812	0.3359429944030323	0.458658486878533	0.3611094060419114	0.16883678229626833	0.4396287735000307	0.5111804832783734	0.06431911534506084	0.46443839419682903	0.5898588185858643	0.06192231812204975	0.4663322408676218	0.5939657615863517	0.08665778621395916	0.43960902898983395	0.6001033672838685	0.08800230316333456	0.47897727201405094	0.0134128507975308	0.006374611491885629	0.4508818045865788	0.2663817759406853	0.05423336091257555	0.4464161167302167	0.4917534860034038	0.12315803913084042	0.40366928756271847	0.5797817740851781	0.11395141813412972	0.4074846747700798	0.6015698262925053	0.06476419886628555	0.4517567349079615	0.5945206607749874
267	4.52542372881356	0.24196081593494367	0.5708134378273665	0.49943125372638975	0.15332957278049106	0.689117789385586	0.9306347488987449	0.06140604664654341	0.7839114597515437	1.278390608816591	0.007144099892289319	0.6169775525480303	1.3147166205541978	0.08072340326706182	0.6039878138874859	1.3217091916979256	0.012696419556525515	0.8840696925204294	1.3287723155693552	0.036646842197254274	0.5735719298302794	0.47163890933539687	-0.060246611019948104	0.6923504400572723	0.8637318292366645	-0.13445288522674423	0.7717551518348712	1.222009109269069	-0.1496715878991012	0.622769206201901	1.2635409456431022	-0.196911005684164	0.6536332220147937	1.2577447018670036	-0.13777008307219918	0.8470432239104073	1.2838258894586212	0.26105960884334617	0.42355296442711804	-0.016479418437858714	0.3183782300850709	0.35008714909209215	-0.25520438029669007	0.29539036222964576	0.3104803702093913	-0.11751367689481748	0.376214290190466	0.4396504613131655	0.10841792346684206	0.3349726106612491	0.45816459026666295	0.36426948645752993	0.16861869729496284	0.44162738985846023	0.5150600020656138	0.06627105987212778	0.46204021859667116	0.5814027960501026	0.06224215851063409	0.4658098354496551	0.5935808274027466	0.09179363773882837	0.4262560747051877	0.59888830676984	0.08794220694827329	0.47897096504463604	0.01360028375460723	0.0058642290185791975	0.4527982657619048	0.2701909677258897	0.05427182728856017	0.4463504031621869	0.49168195941539844	0.12345383907879949	0.4043468343257352	0.5757002606989288	0.11419366074144364	0.40735491421888964	0.6014624599201325	0.06491576910567053	0.4513524794143835	0.5942104840965736
268	4.5423728813559325	0.24219698606557968	0.5688618226729172	0.49492753044863974	0.15324357913512113	0.6894093058003252	0.9307267883457565	0.06139190761711116	0.7839019248729232	1.2783856782887544	0.007175397115607952	0.6170911536757766	1.3148903832024876	0.08077364296705189	0.6042742973838172	1.3218370165119484	0.012727464449864619	0.8839110378181823	1.3285843116791993	0.036097683161666956	0.5735643379810373	0.4753279451907873	-0.06018711243000834	0.6923861254840414	0.8637410832198555	-0.13435273352068902	0.7713220483137392	1.2218500153851377	-0.15231017976504826	0.6086360639755167	1.2612690742934531	-0.19692983107563686	0.653525204147955	1.2576731075135716	-0.13780723085676108	0.8461406364125441	1.283590701271274	0.2611249258316088	0.42354358493095623	-0.016531863179937677	0.318384281340992	0.3502831784939706	-0.2552424956960077	0.2954384779466649	0.3103566332262477	-0.1176076441375342	0.37624360832034376	0.4399924520096219	0.10844025091504245	0.3359877915381111	0.45810443715511706	0.3611673736921293	0.17433102015922322	0.4278285947595535	0.5110120596577016	0.07082442669442761	0.46068755095227354	0.5789160394222936	0.0652010011004565	0.465067719531123	0.5966771190235157	0.09485497231097653	0.4276387490209379	0.5998540404638879	0.08798288218186678	0.47894141614664765	0.013650040943697667	0.005753180301548652	0.45332137465086947	0.27037905118373734	0.05428934078934529	0.4464115274323956	0.49160362569130056	0.12457320283748313	0.40435874434687796	0.5724518256889397	0.11434739265248907	0.40735373979372125	0.6014262114566099	0.06892719210498346	0.45163180108825884	0.5948347930894136
269	4.559322033898305	0.24217956529195675	0.569114585065133	0.49497266135772233	0.15470177931312992	0.6894558647833531	0.9271539870773509	0.06155607837246316	0.781112359663741	1.273085965900596	0.0070702307521936575	0.6170780109600481	1.314949157940987	0.0751562820198193	0.6205514741748652	1.3271805615689085	0.0128100553482696	0.8838820928456771	1.3284313375538843	0.03620119262164003	0.5736196786361021	0.4753158242170837	-0.06032590368520005	0.6926295680634259	0.8636564640124818	-0.13638660110880588	0.7721099922203487	1.2260790356067217	-0.1506438163671269	0.6079399365805149	1.2578048145853884	-0.2045023117603331	0.6538552379710999	1.256609586438928	-0.13788536929328263	0.8465629133921335	1.2837712547292934	0.2611778519266763	0.42348369069156394	-0.016539639773313224	0.3178944832435578	0.35080717494707336	-0.25222027025706734	0.2965893670926302	0.3079525720486076	-0.12437365740302696	0.3762845184164787	0.4397737626297761	0.10845737812727715	0.335812356153562	0.45788387814822834	0.3612703458719465	0.16877092300584756	0.4416318634473484	0.5149649570980565	0.07008078927960706	0.45971644349318785	0.5815605753747614	0.06896607657185522	0.4632887958177565	0.5969455621757364	0.09495540254301786	0.4275405191538692	0.599669045574237	0.08803447306983575	0.47897553101208945	0.013640521361788028	0.005960417058583148	0.45282194659246255	0.2702461620544609	0.05831966955411667	0.44778130590383547	0.49242004908653825	0.12432304394797018	0.4050181345207382	0.5723283782541075	0.11468682271369576	0.4052511667492362	0.5974913499815773	0.07398539417161189	0.43810560886229066	0.5936594732858272
270	4.576271186440678	0.2389112193213156	0.5572627747809734	0.49750521536793735	0.15261613930036108	0.6895804135800423	0.9350813100496047	0.0588319535172023	0.7683893569100437	1.272833355574781	0.007036918519991698	0.6170784544709914	1.3149113258228224	0.07495539548971487	0.6203688326533209	1.3272185966911192	0.012721295283842653	0.8838626927703654	1.3287892052969676	0.03618413920759618	0.5733634807618396	0.4755156943931488	-0.059746938201563085	0.6930983074587801	0.859935862567899	-0.13432914912800628	0.7713514213816209	1.2219557179426246	-0.14355264250818903	0.6069546950909123	1.2587338571406252	-0.19696975870817432	0.6538868355641214	1.257861598029631	-0.13800369595957743	0.8485884390470981	1.2883059928359006	0.26114680741514973	0.4232984942923531	-0.016518608263549936	0.31785210408291786	0.35068678461151764	-0.2522509805571244	0.2961649789067905	0.30943710484661063	-0.12121697491072787	0.3762325746041074	0.4399428999544029	0.10846111990381718	0.3360565937118933	0.4578992006546001	0.3612059801230842	0.17332505883942503	0.4280070028714772	0.5140243561517533	0.08002004810649273	0.44332458519774454	0.5838858755824835	0.07517387512994238	0.4499842291513379	0.5960677911627624	0.09799816383930306	0.4290673210440286	0.6001860447983925	0.08803526581757044	0.47883730215322434	0.013695142250713851	0.006877141994231248	0.4522422934252482	0.2663129191124797	0.058270933588983644	0.4477380669849915	0.49247977941342574	0.12249706221162944	0.4040931070436145	0.5754086457843905	0.1141230257882312	0.40726438278045574	0.6015041895702111	0.07377299500777951	0.4381257307460884	0.5936753746786272
271	4.593220338983051	0.24095729170245583	0.5711817678640433	0.5027750799282089	0.15273143706048825	0.6888753702173246	0.9347689724100338	0.06140514192176817	0.7839117371032186	1.2784970776716642	0.007036555648013148	0.6172023264411937	1.3149819418825754	0.07493797199301075	0.6207749887163674	1.327409441117506	0.012637999135386194	0.8838214860510412	1.3289286662568858	0.034994885940159336	0.5756492317317814	0.4797981069139396	-0.061745727442803204	0.6956519491877274	0.8692174605578704	-0.13435883994548595	0.7717156765549144	1.222116546169934	-0.14974429221542818	0.6228922118159098	1.2635557699760462	-0.20344070161826355	0.6697399270569174	1.2625622248204709	-0.13808634888027257	0.8486025399622035	1.28835888890124	0.26110173486314864	0.4234058850988811	-0.01650028911290707	0.31779370105110905	0.3508857668727071	-0.2522628393847944	0.29615798981059527	0.3094662308035409	-0.1213056638470103	0.37629797571924456	0.4399404332636582	0.10847722854107249	0.33594492917797697	0.45787521959229677	0.36125513991224906	0.17338309400059992	0.4281553390223368	0.5141049838810466	0.07686214010555273	0.44446609810281035	0.5805084205078879	0.07518259992280141	0.4496575164890685	0.5959034470620401	0.09275485138055066	0.44163654158054805	0.6008577355280644	0.08803144169936132	0.47885047623138727	0.013728956017065355	0.006818061675294236	0.4523624362419058	0.26644695323539586	0.05835666693404042	0.44753237925125744	0.4923839567034291	0.12319843311158067	0.4043135454646494	0.5719468921705795	0.11406788693156802	0.4051177468666218	0.5974846096454124	0.07364886349274025	0.43803394286103403	0.5934709363683529
272	4.610169491525424	0.23824219118702405	0.5553137793556538	0.49633618925912276	0.15263888764706326	0.6894880126988476	0.9350147679792243	0.06135894918983915	0.7840125519311915	1.2785952167559798	0.007035700446764353	0.6171008733792631	1.3150526848683235	0.0749758299062562	0.6207108811727482	1.327397174416876	0.012649467007636653	0.8838763244372364	1.3289044101369518	0.03967824420818356	0.5739349603109549	0.4755976873805427	-0.05963811981498648	0.6923889330083233	0.8598086852204128	-0.1342887185444662	0.7717194107308647	1.2220720184591283	-0.1497375623693551	0.6230170669481404	1.2636048090816983	-0.2034845633602589	0.6695961337641823	1.2625036380049763	-0.13751564222201523	0.8451774418014101	1.2830438856967616	0.26113074729629926	0.4234921376651007	-0.016530199262551934	0.31782176525046557	0.3509625910983266	-0.25220260198719013	0.29615829369241586	0.3094388661147014	-0.121361486468033	0.3763358901406067	0.4399672927486263	0.10848149146400173	0.3350843830513705	0.4580384592160946	0.364412454036684	0.17334372464163017	0.4282191417641188	0.5141881897495608	0.07689745574089155	0.44426284663436194	0.5804964190030053	0.07942062558109673	0.43687877473950903	0.5976054338843784	0.09487202147420859	0.4162165437273676	0.5974590152492057	0.09179133683226015	0.4809528729818145	0.014206758742639635	0.008935578387357335	0.4652356001258953	0.2673817162719767	0.05853517884922873	0.4475375569374047	0.49232852535867205	0.12346011455165083	0.40464160649313324	0.5720472891484777	0.11024526042148529	0.4039752173690886	0.5966770127437389	0.07739134689755167	0.4381648870673273	0.5943024818302883
